        <svg id="wave" style="transform:rotate(180deg); transition: 0.3s" viewBox="0 0 1440 490" version="1.1"
            xmlns="http://www.w3.org/2000/svg">
            <defs>
                <linearGradient id="sw-gradient-0" x1="0" x2="0" y1="1" y2="0">
                    <stop stop-color="rgba(10, 77, 104, 1)" offset="0%"></stop>
                    <stop stop-color="rgba(0, 255, 202, 1)" offset="100%"></stop>
                </linearGradient>
            </defs>
            <path style="transform:translate(0, 0px); opacity:1" fill="url(#sw-gradient-0)"
                d="M0,441L48,432.8C96,425,192,408,288,359.3C384,310,480,229,576,187.8C672,147,768,147,864,187.8C960,229,1056,310,1152,343C1248,376,1344,359,1440,294C1536,229,1632,114,1728,57.2C1824,0,1920,0,2016,24.5C2112,49,2208,98,2304,98C2400,98,2496,49,2592,40.8C2688,33,2784,65,2880,98C2976,131,3072,163,3168,171.5C3264,180,3360,163,3456,187.8C3552,212,3648,278,3744,326.7C3840,376,3936,408,4032,408.3C4128,408,4224,376,4320,343C4416,310,4512,278,4608,294C4704,310,4800,376,4896,343C4992,310,5088,180,5184,179.7C5280,180,5376,310,5472,367.5C5568,425,5664,408,5760,392C5856,376,5952,359,6048,326.7C6144,294,6240,245,6336,212.3C6432,180,6528,163,6624,155.2C6720,147,6816,147,6864,147L6912,147L6912,490L6864,490C6816,490,6720,490,6624,490C6528,490,6432,490,6336,490C6240,490,6144,490,6048,490C5952,490,5856,490,5760,490C5664,490,5568,490,5472,490C5376,490,5280,490,5184,490C5088,490,4992,490,4896,490C4800,490,4704,490,4608,490C4512,490,4416,490,4320,490C4224,490,4128,490,4032,490C3936,490,3840,490,3744,490C3648,490,3552,490,3456,490C3360,490,3264,490,3168,490C3072,490,2976,490,2880,490C2784,490,2688,490,2592,490C2496,490,2400,490,2304,490C2208,490,2112,490,2016,490C1920,490,1824,490,1728,490C1632,490,1536,490,1440,490C1344,490,1248,490,1152,490C1056,490,960,490,864,490C768,490,672,490,576,490C480,490,384,490,288,490C192,490,96,490,48,490L0,490Z">
            </path>
            <defs>
                <linearGradient id="sw-gradient-1" x1="0" x2="0" y1="1" y2="0">
                    <stop stop-color="rgba(10, 77, 104, 1)" offset="0%"></stop>
                    <stop stop-color="rgba(0, 255, 202, 1)" offset="100%"></stop>
                </linearGradient>
            </defs>
            <path style="transform:translate(0, 50px); opacity:0.9" fill="url(#sw-gradient-1)"
                d="M0,0L48,24.5C96,49,192,98,288,98C384,98,480,49,576,24.5C672,0,768,0,864,40.8C960,82,1056,163,1152,187.8C1248,212,1344,180,1440,155.2C1536,131,1632,114,1728,89.8C1824,65,1920,33,2016,73.5C2112,114,2208,229,2304,269.5C2400,310,2496,278,2592,245C2688,212,2784,180,2880,179.7C2976,180,3072,212,3168,245C3264,278,3360,310,3456,294C3552,278,3648,212,3744,204.2C3840,196,3936,245,4032,220.5C4128,196,4224,98,4320,73.5C4416,49,4512,98,4608,130.7C4704,163,4800,180,4896,179.7C4992,180,5088,163,5184,171.5C5280,180,5376,212,5472,187.8C5568,163,5664,82,5760,81.7C5856,82,5952,163,6048,212.3C6144,261,6240,278,6336,253.2C6432,229,6528,163,6624,155.2C6720,147,6816,196,6864,220.5L6912,245L6912,490L6864,490C6816,490,6720,490,6624,490C6528,490,6432,490,6336,490C6240,490,6144,490,6048,490C5952,490,5856,490,5760,490C5664,490,5568,490,5472,490C5376,490,5280,490,5184,490C5088,490,4992,490,4896,490C4800,490,4704,490,4608,490C4512,490,4416,490,4320,490C4224,490,4128,490,4032,490C3936,490,3840,490,3744,490C3648,490,3552,490,3456,490C3360,490,3264,490,3168,490C3072,490,2976,490,2880,490C2784,490,2688,490,2592,490C2496,490,2400,490,2304,490C2208,490,2112,490,2016,490C1920,490,1824,490,1728,490C1632,490,1536,490,1440,490C1344,490,1248,490,1152,490C1056,490,960,490,864,490C768,490,672,490,576,490C480,490,384,490,288,490C192,490,96,490,48,490L0,490Z">

            </path>
        </svg>